<svg width="118" height="24" viewBox="0 0 118 24" fill="none" xmlns="http://www.w3.org/2000/svg">
<g clip-path="url(#clip0_1_23)">
<path fill-rule="evenodd" clip-rule="evenodd" d="M8.34211 24H7.28947C6.44737 24 5.68421 23.6053 5.18421 22.9737L0.184211 16.5526C0.0789474 16.3947 0 16.2105 0 16C0 15.7895 0.0789474 15.6053 0.184211 15.4474L5.21053 9.02632C5.71053 8.39474 6.44737 8 7.31579 8H18.4211L12.1053 15.9211L7.5 21.7368L8.34211 24Z" fill="url(#paint0_linear_1_23)"/>
<path fill-rule="evenodd" clip-rule="evenodd" d="M12.1842 16L12.1316 15.9211L7.5 21.7368C7.31579 21.9737 7.1579 22.2895 7.1579 22.8158C7.1579 23.3421 7.6579 24 8.6579 24H18.4211L12.1842 16Z" fill="url(#paint1_linear_1_23)"/>
<path fill-rule="evenodd" clip-rule="evenodd" d="M25.3421 2.26316L24.5 0H25.5527C26.3948 0 27.1579 0.394737 27.6579 1.02632L32.6842 7.44737C32.7895 7.60526 32.8685 7.78947 32.8685 8C32.8685 8.21053 32.7895 8.39474 32.6842 8.55263L27.6316 14.9737C27.1316 15.6053 26.3948 16 25.5263 16H14.4211L20.7369 8.07895L25.3421 2.26316Z" fill="url(#paint2_linear_1_23)"/>
<path fill-rule="evenodd" clip-rule="evenodd" d="M20.6842 8L20.7369 8.07895L25.3421 2.26316C25.5263 2.02632 25.6842 1.71053 25.6842 1.18421C25.6842 0.657895 25.1842 0 24.1842 0H14.4211L20.6842 8Z" fill="url(#paint3_linear_1_23)"/>
<path d="M25.6053 2.15789C25.7895 1.92105 25.8948 1.65789 25.8948 1.34211C25.8948 0.605263 25.2895 0 24.5527 0H24.2105C24.9474 0 25.5263 0.605263 25.5263 1.34211C25.5263 1.65789 25.4211 1.94737 25.2369 2.15789L20.6842 8L14.4474 15.9737L25.6053 2.15789Z" fill="#0BBBEF"/>
<path d="M7.26317 21.8421C7.07896 22.079 6.97369 22.3421 6.97369 22.6579C6.97369 23.3947 7.57896 24 8.3158 24H8.6579C7.92106 24 7.3158 23.3947 7.3158 22.6579C7.3158 22.3421 7.42106 22.0526 7.60527 21.8421L12.1842 16L18.4211 8.02632L7.26317 21.8421Z" fill="#FFD500"/>
<path d="M74.5263 11.2632C73.8947 11.2632 73.3947 11.3421 72.8684 11.5C72.0263 11.7632 71.3947 12.2105 70.921 12.8421C70.1053 13.8947 70.1316 15.1579 70.1316 15.1579V23.9474H72.4737C72.6316 23.9474 72.7368 23.8158 72.7368 23.6842V15.3421C72.7368 15.1842 72.7631 14.6053 73.0789 14.3158C73.3421 14.079 73.6842 13.9737 74.0263 13.9211C74.3947 13.8684 74.7631 13.8947 74.9474 13.9211C74.9474 13.9211 74.9737 13.9211 75 13.9211C75.1842 13.9211 75.3158 13.8158 75.3947 13.6842L76.6053 11.6053C75.9737 11.3684 75.2895 11.2368 74.5263 11.2632Z" fill="#06416A"/>
<path d="M67.6316 11.2632C67 11.2632 66.4737 11.3421 65.9737 11.5C65.1316 11.7632 64.5 12.2105 64.0263 12.8421C63.2105 13.8947 63.2369 15.1579 63.2369 15.1579V23.9474H65.579C65.7369 23.9474 65.8421 23.8158 65.8421 23.6842V15.3421C65.8421 15.1842 65.8684 14.6053 66.1842 14.3158C66.4474 14.079 66.7895 13.9737 67.1316 13.9211C67.5 13.8684 67.8684 13.8947 68.0526 13.9211C68.0526 13.9211 68.079 13.9211 68.1053 13.9211C68.2632 13.9211 68.4211 13.8158 68.5 13.6842L69.7369 11.579C69.0526 11.3684 68.3947 11.2368 67.6316 11.2632Z" fill="#06416A"/>
<path d="M47.1579 20.7105C47.079 20.6053 46.9211 20.5263 46.7632 20.5263C46.6842 20.5263 46.579 20.5526 46.5263 20.6053C45.7369 21.079 44.7895 21.3684 43.7895 21.3684C40.8421 21.3684 38.4474 18.9737 38.4474 16C38.4474 13.0526 40.8421 10.6579 43.7895 10.6579C44.7895 10.6579 45.7369 10.9211 46.5263 11.4211C46.6053 11.4737 46.6842 11.5 46.7895 11.5C46.9474 11.5 47.079 11.4211 47.1842 11.3158L48.5263 9.57895C47.2105 8.60527 45.579 8.02632 43.7895 8.02632C39.3684 8.02632 35.7895 11.6053 35.7895 16.0263C35.7895 20.4474 39.3684 24.0263 43.7895 24.0263C45.5526 24.0263 47.1842 23.4474 48.5263 22.4737L47.1579 20.7105Z" fill="#06416A"/>
<path d="M82.7106 13.6053C84.4474 13.6053 85.9211 14.7368 86.4474 16.2895H79C79.5263 14.7368 81 13.6053 82.7106 13.6053ZM82.7106 11.0789C79.1579 11.0789 76.2632 13.9737 76.2632 17.5263C76.2632 21.0526 79.1579 23.9474 82.7106 23.9737C82.7632 23.9737 82.8948 23.9737 82.8948 23.9737C84.2895 23.9737 85.4211 23.7895 86.9211 22.8158L87.1579 22.6579C87.1579 22.6579 85.8421 20.9474 85.8158 20.9211C85.7369 20.8158 85.579 20.7368 85.4474 20.7368C85.3685 20.7368 85.2895 20.7632 85.2106 20.7895C84.8684 20.9737 83.8421 21.4211 82.7106 21.4211C81 21.4211 79.5527 20.3421 79 18.8158H87.8421H88.8685C89.0263 18.8158 89.1316 18.6842 89.1316 18.5526L89.1579 17.8158C89.1579 17.7105 89.1579 17.6316 89.1579 17.5263C89.1842 13.9737 86.2895 11.0789 82.7106 11.0789Z" fill="#06416A"/>
<path d="M90.9474 24C90.7895 24 90.6842 23.8947 90.6842 23.7368V11.7632C90.6842 11.6316 90.7895 11.5 90.9474 11.5H93.0263C93.1842 11.5 93.2895 11.6316 93.2895 11.7632V23.7368C93.2895 23.8947 93.1579 24 93.0263 24H90.9474Z" fill="#06416A"/>
<path d="M55.4474 13.5526C53.2895 13.5526 51.5527 15.2895 51.5527 17.4474C51.5527 19.6053 53.2895 21.3421 55.4474 21.3421C57.6053 21.3421 59.3421 19.6053 59.3421 17.4474C59.3421 15.2895 57.6053 13.5526 55.4474 13.5526ZM55.4474 24C51.8421 24 48.9211 21.079 48.9211 17.4737C48.9211 13.8684 51.8421 10.9474 55.4474 10.9474C59.0527 10.9474 61.9737 13.8684 61.9737 17.4737C61.9737 21.0526 59.0527 24 55.4474 24Z" fill="#06416A"/>
<path d="M101.079 13.6579C98.9474 13.6579 97.2105 15.3947 97.2105 17.5263C97.2105 19.6579 98.9474 21.3684 101.079 21.3684C103.211 21.3684 104.947 19.6316 104.947 17.5263C104.947 15.3947 103.211 13.6579 101.079 13.6579ZM101.079 23.9737C97.5 23.9737 94.6053 21.079 94.6053 17.5C94.6053 13.9211 97.5 11.0263 101.079 11.0263C104.658 11.0263 107.553 13.9211 107.553 17.5C107.553 21.079 104.658 23.9737 101.079 23.9737Z" fill="#06416A"/>
<path d="M114.895 16.5263C114.447 16.3158 113.868 16.1842 113.237 16.0263C112.316 15.7895 111.447 15.7368 111.132 15.2368C110.842 14.7632 111 14.2368 111.395 13.9474C112.316 13.3158 113.553 13.579 114.237 13.8947C114.368 13.9474 114.868 14.2368 114.868 14.2368C114.947 14.2895 115.026 14.3158 115.105 14.3158C115.263 14.3158 115.395 14.2368 115.5 14.1053L116.816 12.4211L116.605 12.2368C116.474 12.1316 116.289 12.0263 116.105 11.9211C115.711 11.7105 114.526 11.0263 112.816 11.0263C112.763 11.0263 112.711 11.0263 112.658 11.0263C108.895 11.1053 108.368 13.7632 108.368 14.7105C108.368 16.1316 109.105 17.1579 110.211 17.7895C111.105 18.2895 112.763 18.579 113.605 18.8421C114.053 18.9737 114.368 19.2895 114.5 19.579C114.553 19.7105 114.579 19.8421 114.579 20C114.605 20.5 114.342 21.0526 113.605 21.2895C112.789 21.5263 111.526 21.4211 110.368 20.5263C110.342 20.5 110.211 20.3947 110.158 20.3684C110.105 20.3421 110.053 20.3421 109.974 20.3421C109.816 20.3421 109.684 20.4211 109.579 20.5526C109.553 20.579 108.289 22.2105 108.289 22.2105C108.289 22.2105 108.737 22.579 108.895 22.6842C109.632 23.2368 110.947 23.9737 112.658 23.9737H112.711C116.342 23.9737 117.184 21.3947 117.184 19.9737C117.184 18.5526 116.316 17.1579 114.895 16.5263Z" fill="#06416A"/>
</g>
<defs>
<linearGradient id="paint0_linear_1_23" x1="18.1163" y1="7.60363" x2="2.64574" y2="19.6905" gradientUnits="userSpaceOnUse">
<stop stop-color="#FFDD00"/>
<stop offset="0.9" stop-color="#D49F00"/>
<stop offset="1" stop-color="#FFDD00"/>
</linearGradient>
<linearGradient id="paint1_linear_1_23" x1="18.4253" y1="19.9632" x2="7.16256" y2="19.9632" gradientUnits="userSpaceOnUse">
<stop stop-color="#D49F00"/>
<stop offset="1" stop-color="#AB5808"/>
</linearGradient>
<linearGradient id="paint2_linear_1_23" x1="14.7179" y1="16.3732" x2="30.2156" y2="4.30855" gradientUnits="userSpaceOnUse">
<stop stop-color="#00537E"/>
<stop offset="0.9" stop-color="#18AAE2"/>
<stop offset="1" stop-color="#107BC0"/>
</linearGradient>
<linearGradient id="paint3_linear_1_23" x1="24.1589" y1="-1.10816" x2="17.5773" y2="4.03395" gradientUnits="userSpaceOnUse">
<stop stop-color="#002542"/>
<stop offset="1" stop-color="#004169"/>
</linearGradient>
<clipPath id="clip0_1_23">
<rect width="117.184" height="24" fill="white"/>
</clipPath>
</defs>
</svg>
